<svg width="115" height="115" viewBox="0 0 115 115" fill="none" xmlns="http://www.w3.org/2000/svg">
<path d="M79.4586 60.3822L73.2765 66.5645C73.1958 66.4667 73.1102 66.3716 73.0187 66.2801L65.0346 58.296C64.593 57.8546 63.8775 57.8546 63.4362 58.296C62.9948 58.7374 62.9948 59.4531 63.4362 59.8943L71.4203 67.8784C72.1067 68.5647 72.1067 69.6814 71.4204 70.3677C70.7337 71.054 69.6171 71.0541 68.9309 70.3677L64.4943 65.9311C64.0528 65.4897 63.3373 65.4897 62.8959 65.9311C62.4545 66.3725 62.4545 67.0881 62.8959 67.5294L67.3325 71.966C67.3327 71.9661 67.333 71.9663 67.3331 71.9666C67.6653 72.299 67.8482 72.7407 67.8482 73.2107C67.8482 73.6809 67.6651 74.1229 67.3325 74.4555C67.0001 74.7879 66.5581 74.971 66.0879 74.971C65.6178 74.971 65.1758 74.7879 64.8433 74.4555L60.4067 70.0189C59.9652 69.5775 59.2497 69.5775 58.8083 70.0189C58.3669 70.4602 58.3669 71.1759 58.8083 71.6171L63.2449 76.0537C63.9313 76.74 63.9313 77.8568 63.2451 78.5431C62.9125 78.8756 62.4704 79.0587 62.0002 79.0587C61.53 79.0587 61.088 78.8756 60.7556 78.5432L56.319 74.1066C55.8775 73.6652 55.162 73.6652 54.7206 74.1066C54.2792 74.548 54.2792 75.2636 54.7206 75.7049L59.1572 80.1415C59.8436 80.8277 59.8436 81.9445 59.1572 82.6308C58.8248 82.9632 58.3828 83.1463 57.9126 83.1463C57.4424 83.1463 57.0004 82.9632 56.668 82.6308L53.7938 79.7566C54.7096 78.2305 54.511 76.2174 53.1968 74.9033L53.1286 74.8352C52.2531 73.9597 51.067 73.5795 49.9214 73.6938C49.8571 72.7351 49.454 71.8424 48.768 71.1565C48.2374 70.6259 47.5927 70.2771 46.9122 70.1102C47.0856 69.6601 47.1774 69.1774 47.1774 68.6805C47.1774 67.6193 46.7642 66.6217 46.0139 65.8714C45.2636 65.1211 44.266 64.7079 43.2048 64.7079C42.6001 64.7079 42.0163 64.8425 41.4869 65.0969C41.3088 64.4643 40.9723 63.8673 40.4754 63.3705C38.9267 61.8217 36.4064 61.8218 34.8574 63.3705L34.3913 63.8366L34.0515 63.4968C33.5049 62.9502 33.204 62.2237 33.204 61.4508V58.5032C33.204 58.2035 33.0849 57.916 32.873 57.7041L28.0481 52.8791L29.4048 51.5223C29.8462 51.0809 29.8462 50.3653 29.4046 49.924C28.9634 49.4825 28.2478 49.4826 27.8064 49.924L25.989 51.7415C25.6463 52.0842 25.0884 52.0844 24.7458 51.7415L18.9297 45.9253C18.4883 45.484 17.7728 45.484 17.3313 45.9253C16.8899 46.3667 16.8899 47.0822 17.3313 47.5236L23.1475 53.3398C23.7596 53.9518 24.5634 54.2577 25.3672 54.2577C25.6246 54.2577 25.8812 54.2227 26.1323 54.1601L30.9435 58.9711V61.4507C30.9435 62.8273 31.4797 64.1214 32.453 65.0949L32.793 65.4349L32.4148 65.8131C31.6645 66.5634 31.2511 67.561 31.2511 68.6222C31.2511 69.6834 31.6643 70.681 32.4146 71.4312C33.1892 72.2056 34.2065 72.5929 35.2239 72.5929C35.24 72.5929 35.2561 72.592 35.2722 72.5917C35.2721 72.6084 35.271 72.625 35.271 72.6418C35.271 73.703 35.6842 74.7006 36.4345 75.4508C37.1849 76.2011 38.1826 76.6143 39.2436 76.6143C39.2604 76.6143 39.2771 76.6133 39.2938 76.6131C39.2813 77.6464 39.6675 78.6838 40.4542 79.4704C41.2287 80.2449 42.2461 80.6321 43.2634 80.6321C43.2801 80.6321 43.2969 80.6311 43.3135 80.6309C43.3005 81.6648 43.6867 82.703 44.474 83.4902L44.5421 83.5583C45.2924 84.3086 46.29 84.7218 47.351 84.7218C48.4122 84.7218 49.4098 84.3086 50.1601 83.5583L52.2796 81.439L55.0699 84.2292C55.8292 84.9887 56.8389 85.4069 57.9129 85.4069C58.9869 85.4069 59.9966 84.9887 60.7559 84.2292C61.5571 83.428 61.9478 82.3699 61.93 81.3175C61.9535 81.3179 61.9768 81.3191 62.0005 81.3191C63.0745 81.3191 64.0841 80.901 64.8437 80.1415C65.6453 79.3398 66.0359 78.2808 66.0177 77.2279C66.0412 77.2284 66.0647 77.2296 66.0882 77.2296C67.1176 77.2294 68.1475 76.8375 68.9311 76.0539C69.6906 75.2945 70.1088 74.2849 70.1088 73.2109C70.1088 73.1872 70.1074 73.1639 70.1071 73.1403C70.13 73.1408 70.1529 73.142 70.1758 73.142C71.2054 73.142 72.2351 72.75 73.019 71.9663C73.8713 71.114 74.259 69.9711 74.1846 68.8537L81.0575 61.9808C81.4989 61.5394 81.4989 60.8238 81.0575 60.3825C80.6157 59.9408 79.9002 59.9408 79.4586 60.3822ZM34.0129 69.8327C33.6895 69.5094 33.5115 69.0794 33.5115 68.6222C33.5115 68.1649 33.6896 67.7349 34.013 67.4115L36.4556 64.9689C36.7896 64.6351 37.228 64.4682 37.6665 64.4682C38.1048 64.4682 38.5432 64.635 38.877 64.9688C39.5446 65.6365 39.5446 66.7227 38.877 67.3901L36.4342 69.8329C35.7667 70.5005 34.6806 70.5003 34.0129 69.8327ZM39.2433 74.354C38.7861 74.354 38.3561 74.1759 38.0327 73.8525C37.7093 73.5291 37.5313 73.0992 37.5313 72.642C37.5313 72.1848 37.7094 71.7547 38.0328 71.4313L40.4756 68.9886L41.9943 67.4699C42.3177 67.1465 42.7474 66.9683 43.2048 66.9683C43.6622 66.9683 44.0921 67.1465 44.4153 67.4699C44.7387 67.7932 44.9168 68.2233 44.9168 68.6805C44.9168 69.1377 44.7387 69.5678 44.4153 69.8912L40.4539 73.8527C40.1305 74.1759 39.7007 74.354 39.2433 74.354ZM42.0523 77.8722C41.3847 77.2046 41.3847 76.1184 42.0523 75.4508L44.7484 72.7546C45.0822 72.4209 45.5205 72.2541 45.959 72.2541C46.3974 72.2541 46.8359 72.4211 47.1696 72.7547C47.493 73.0781 47.6711 73.5082 47.6711 73.9654C47.6711 74.4225 47.4933 74.8521 47.1702 75.1753L44.4735 77.872C43.8061 78.5397 42.7199 78.5397 42.0523 77.8722ZM48.5612 81.9599C48.2379 82.2833 47.8081 82.4614 47.3507 82.4614C46.8935 82.4614 46.4634 82.2833 46.1402 81.9599L46.0722 81.8919C45.4045 81.2244 45.4045 80.1382 46.0722 79.4706L48.7681 76.7747C48.7691 76.7737 48.7698 76.7728 48.7706 76.7721L49.1089 76.4336C49.4428 76.0998 49.8812 75.933 50.3197 75.933C50.7581 75.933 51.1966 76.1 51.5302 76.4336L51.5982 76.5016C52.2659 77.1692 52.2659 78.2554 51.5982 78.923L48.5612 81.9599Z" fill="white"/>
<path d="M93.669 50.6875C93.2277 50.2461 92.5122 50.2459 92.0706 50.6875L87.8352 54.9229C87.7769 54.9812 87.6809 54.9821 87.6214 54.9253L72.648 40.6224C72.6172 40.5929 72.6012 40.5563 72.6007 40.5135C72.6003 40.4707 72.6155 40.4336 72.6456 40.4035L81.5265 31.5227C81.9679 31.0813 81.9679 30.3657 81.5265 29.9245C81.0851 29.4831 80.3696 29.4831 79.9281 29.9245L71.0472 38.8052C70.584 39.2686 70.3331 39.8845 70.3406 40.5395C70.3468 41.0676 70.5228 41.5647 70.8379 41.9754L66.7737 45.9611L62.9444 43.8254C62.4439 43.5462 61.8765 43.3987 61.3035 43.3987H50.4233L49.5952 42.5708C48.8258 41.8013 47.9201 41.2148 46.9034 40.8274L43.8914 39.6798L42.4996 38.288C43.2193 37.0826 43.0644 35.4964 42.0275 34.4596L37.4923 29.9245C37.051 29.4831 36.3355 29.4831 35.8939 29.9245C35.4525 30.3658 35.4525 31.0815 35.8939 31.5227L40.4291 36.0579C40.7718 36.4006 40.7718 36.9583 40.4291 37.3011L31.2121 46.518C30.7708 46.9594 30.7708 47.6751 31.2121 48.1163C31.4329 48.3369 31.7222 48.4474 32.0114 48.4474C32.3006 48.4474 32.5899 48.3371 32.8107 48.1163L40.971 39.956L42.4639 41.449C42.5766 41.5617 42.712 41.6493 42.8608 41.7061L46.0987 42.9397C46.7973 43.2059 47.4209 43.6065 47.9543 44.1288C47.8858 44.1865 47.8184 44.2462 47.7542 44.3104L43.4558 48.6091C42.6027 49.462 42.133 50.5963 42.133 51.8026C42.133 53.0089 42.6027 54.143 43.4556 54.9961C44.337 55.8775 45.49 56.3247 46.6481 56.3247C47.6602 56.3247 48.676 55.983 49.5173 55.2913L52.7702 52.6171H56.1586L60.0302 56.4888C60.251 56.7094 60.5403 56.8198 60.8295 56.8198C61.1187 56.8198 61.408 56.7095 61.6288 56.4888C62.0702 56.0474 62.0702 55.3317 61.6288 54.8905L58.8318 52.0934C58.9437 51.918 59.0094 51.7104 59.0094 51.4869C59.0094 50.8627 58.5035 50.3567 57.8792 50.3567H52.3652C52.1034 50.3567 51.8496 50.4476 51.6474 50.6139L48.0818 53.5452C47.1802 54.2862 45.879 54.2228 45.054 53.3979C44.6279 52.9717 44.3933 52.4052 44.3933 51.8028C44.3933 51.2003 44.6279 50.6337 45.054 50.2077L49.3526 45.9089C49.5134 45.748 49.7274 45.6594 49.9549 45.6594H61.3033C61.4918 45.6594 61.6784 45.7079 61.8431 45.7998L66.0782 48.1618C66.7069 48.5128 67.5063 48.4066 68.0232 47.9014L72.4502 43.5598L84.6385 55.2023L82.8642 56.9766C82.4229 57.4179 82.4229 58.1336 82.8644 58.5748C83.085 58.7956 83.3743 58.9059 83.6635 58.9059C83.9527 58.9059 84.242 58.7956 84.4628 58.5748L86.2882 56.7495C86.7125 57.064 87.219 57.2226 87.7264 57.2226C88.3467 57.2226 88.9666 56.9883 89.4335 56.5213L93.669 52.286C94.1103 51.8444 94.1103 51.1289 93.669 50.6875Z" fill="white"/>
<circle cx="57.5" cy="57.5" r="57" stroke="white"/>
</svg>
