<svg width="77" height="77" viewBox="0 0 77 77" fill="none" xmlns="http://www.w3.org/2000/svg">
<path d="M62.4586 41.3822L56.2765 47.5645C56.1958 47.4667 56.1102 47.3716 56.0187 47.2801L48.0346 39.296C47.593 38.8546 46.8775 38.8546 46.4362 39.296C45.9948 39.7374 45.9948 40.4531 46.4362 40.8943L54.4203 48.8784C55.1067 49.5647 55.1067 50.6814 54.4204 51.3677C53.7337 52.054 52.6171 52.0541 51.9309 51.3677L47.4943 46.9311C47.0528 46.4897 46.3373 46.4897 45.8959 46.9311C45.4545 47.3725 45.4545 48.0881 45.8959 48.5294L50.3325 52.966C50.3327 52.9661 50.333 52.9663 50.3331 52.9666C50.6653 53.299 50.8482 53.7407 50.8482 54.2107C50.8482 54.6809 50.6651 55.1229 50.3325 55.4555C50.0001 55.7879 49.5581 55.971 49.0879 55.971C48.6178 55.971 48.1758 55.7879 47.8433 55.4555L43.4067 51.0189C42.9652 50.5775 42.2497 50.5775 41.8083 51.0189C41.3669 51.4602 41.3669 52.1759 41.8083 52.6171L46.2449 57.0537C46.9313 57.74 46.9313 58.8568 46.2451 59.5431C45.9125 59.8756 45.4704 60.0587 45.0002 60.0587C44.53 60.0587 44.088 59.8756 43.7556 59.5432L39.319 55.1066C38.8775 54.6652 38.162 54.6652 37.7206 55.1066C37.2792 55.548 37.2792 56.2636 37.7206 56.7049L42.1572 61.1415C42.8436 61.8277 42.8436 62.9445 42.1572 63.6308C41.8248 63.9632 41.3828 64.1463 40.9126 64.1463C40.4424 64.1463 40.0004 63.9632 39.668 63.6308L36.7938 60.7566C37.7096 59.2305 37.511 57.2174 36.1968 55.9033L36.1286 55.8352C35.2531 54.9597 34.067 54.5795 32.9214 54.6938C32.8571 53.7351 32.454 52.8424 31.768 52.1565C31.2374 51.6259 30.5927 51.2771 29.9122 51.1102C30.0856 50.6601 30.1774 50.1774 30.1774 49.6805C30.1774 48.6193 29.7642 47.6217 29.0139 46.8714C28.2636 46.1211 27.266 45.7079 26.2048 45.7079C25.6001 45.7079 25.0163 45.8425 24.4869 46.0969C24.3088 45.4643 23.9723 44.8673 23.4754 44.3705C21.9267 42.8217 19.4064 42.8218 17.8574 44.3705L17.3913 44.8366L17.0515 44.4968C16.5049 43.9502 16.204 43.2237 16.204 42.4508V39.5032C16.204 39.2035 16.0849 38.916 15.873 38.7041L11.0481 33.8791L12.4048 32.5223C12.8462 32.0809 12.8462 31.3653 12.4046 30.924C11.9634 30.4825 11.2478 30.4826 10.8064 30.924L8.98899 32.7415C8.64631 33.0842 8.08844 33.0844 7.74576 32.7415L1.9297 26.9253C1.48832 26.484 0.772818 26.484 0.331283 26.9253C-0.110102 27.3667 -0.110102 28.0822 0.331283 28.5236L6.14749 34.3398C6.75961 34.9518 7.56342 35.2577 8.36723 35.2577C8.62461 35.2577 8.88124 35.2227 9.1323 35.1601L13.9435 39.9711V42.4507C13.9435 43.8273 14.4797 45.1214 15.453 46.0949L15.793 46.4349L15.4148 46.8131C14.6645 47.5634 14.2511 48.561 14.2511 49.6222C14.2511 50.6834 14.6643 51.681 15.4146 52.4312C16.1892 53.2056 17.2065 53.5929 18.2239 53.5929C18.24 53.5929 18.2561 53.592 18.2722 53.5917C18.2721 53.6084 18.271 53.625 18.271 53.6418C18.271 54.703 18.6842 55.7006 19.4345 56.4508C20.1849 57.2011 21.1826 57.6143 22.2436 57.6143C22.2604 57.6143 22.2771 57.6133 22.2938 57.6131C22.2813 58.6464 22.6675 59.6838 23.4542 60.4704C24.2287 61.2449 25.2461 61.6321 26.2634 61.6321C26.2801 61.6321 26.2969 61.6311 26.3135 61.6309C26.3005 62.6648 26.6867 63.703 27.474 64.4902L27.5421 64.5583C28.2924 65.3086 29.29 65.7218 30.351 65.7218C31.4122 65.7218 32.4098 65.3086 33.1601 64.5583L35.2796 62.439L38.0699 65.2292C38.8292 65.9887 39.8389 66.4069 40.9129 66.4069C41.9869 66.4069 42.9966 65.9887 43.7559 65.2292C44.5571 64.428 44.9478 63.3699 44.93 62.3175C44.9535 62.3179 44.9768 62.3191 45.0005 62.3191C46.0745 62.3191 47.0841 61.901 47.8437 61.1415C48.6453 60.3398 49.0359 59.2808 49.0177 58.2279C49.0412 58.2284 49.0647 58.2296 49.0882 58.2296C50.1176 58.2294 51.1475 57.8375 51.9311 57.0539C52.6906 56.2945 53.1088 55.2849 53.1088 54.2109C53.1088 54.1872 53.1074 54.1639 53.1071 54.1403C53.13 54.1408 53.1529 54.142 53.1758 54.142C54.2054 54.142 55.2351 53.75 56.019 52.9663C56.8713 52.114 57.259 50.9711 57.1846 49.8537L64.0575 42.9808C64.4989 42.5394 64.4989 41.8238 64.0575 41.3825C63.6157 40.9408 62.9002 40.9408 62.4586 41.3822ZM17.0129 50.8327C16.6895 50.5094 16.5115 50.0794 16.5115 49.6222C16.5115 49.1649 16.6896 48.7349 17.013 48.4115L19.4556 45.9689C19.7896 45.6351 20.228 45.4682 20.6665 45.4682C21.1048 45.4682 21.5432 45.635 21.877 45.9688C22.5446 46.6365 22.5446 47.7227 21.877 48.3901L19.4342 50.8329C18.7667 51.5005 17.6806 51.5003 17.0129 50.8327ZM22.2433 55.354C21.7861 55.354 21.3561 55.1759 21.0327 54.8525C20.7093 54.5291 20.5313 54.0992 20.5313 53.642C20.5313 53.1848 20.7094 52.7547 21.0328 52.4313L23.4756 49.9886L24.9943 48.4699C25.3177 48.1465 25.7474 47.9683 26.2048 47.9683C26.6622 47.9683 27.0921 48.1465 27.4153 48.4699C27.7387 48.7932 27.9168 49.2233 27.9168 49.6805C27.9168 50.1377 27.7387 50.5678 27.4153 50.8912L23.4539 54.8527C23.1305 55.1759 22.7007 55.354 22.2433 55.354ZM25.0523 58.8722C24.3847 58.2046 24.3847 57.1184 25.0523 56.4508L27.7484 53.7546C28.0822 53.4209 28.5205 53.2541 28.959 53.2541C29.3974 53.2541 29.8359 53.4211 30.1696 53.7547C30.493 54.0781 30.6711 54.5082 30.6711 54.9654C30.6711 55.4225 30.4933 55.8521 30.1702 56.1753L27.4735 58.872C26.8061 59.5397 25.7199 59.5397 25.0523 58.8722ZM31.5612 62.9599C31.2379 63.2833 30.8081 63.4614 30.3507 63.4614C29.8935 63.4614 29.4634 63.2833 29.1402 62.9599L29.0722 62.8919C28.4045 62.2244 28.4045 61.1382 29.0722 60.4706L31.7681 57.7747C31.7691 57.7737 31.7698 57.7728 31.7706 57.7721L32.1089 57.4336C32.4428 57.0998 32.8812 56.933 33.3197 56.933C33.7581 56.933 34.1966 57.1 34.5302 57.4336L34.5982 57.5016C35.2659 58.1692 35.2659 59.2554 34.5982 59.923L31.5612 62.9599Z" fill="white"/>
<path d="M76.669 31.6875C76.2277 31.2461 75.5122 31.2459 75.0706 31.6875L70.8352 35.9229C70.7769 35.9812 70.6809 35.9821 70.6214 35.9253L55.648 21.6224C55.6172 21.5929 55.6012 21.5563 55.6007 21.5135C55.6003 21.4707 55.6155 21.4336 55.6456 21.4035L64.5265 12.5227C64.9679 12.0813 64.9679 11.3657 64.5265 10.9245C64.0851 10.4831 63.3696 10.4831 62.9281 10.9245L54.0472 19.8052C53.584 20.2686 53.3331 20.8845 53.3406 21.5395C53.3468 22.0676 53.5228 22.5647 53.8379 22.9754L49.7737 26.9611L45.9444 24.8254C45.4439 24.5462 44.8765 24.3987 44.3035 24.3987H33.4233L32.5952 23.5708C31.8258 22.8013 30.9201 22.2148 29.9034 21.8274L26.8914 20.6798L25.4996 19.288C26.2193 18.0826 26.0644 16.4964 25.0275 15.4596L20.4923 10.9245C20.051 10.4831 19.3355 10.4831 18.8939 10.9245C18.4525 11.3658 18.4525 12.0815 18.8939 12.5227L23.4291 17.0579C23.7718 17.4006 23.7718 17.9583 23.4291 18.3011L14.2121 27.518C13.7708 27.9594 13.7708 28.6751 14.2121 29.1163C14.4329 29.3369 14.7222 29.4474 15.0114 29.4474C15.3006 29.4474 15.5899 29.3371 15.8107 29.1163L23.971 20.956L25.4639 22.449C25.5766 22.5617 25.712 22.6493 25.8608 22.7061L29.0987 23.9397C29.7973 24.2059 30.4209 24.6065 30.9543 25.1288C30.8858 25.1865 30.8184 25.2462 30.7542 25.3104L26.4558 29.6091C25.6027 30.462 25.133 31.5963 25.133 32.8026C25.133 34.0089 25.6027 35.143 26.4556 35.9961C27.337 36.8775 28.49 37.3247 29.6481 37.3247C30.6602 37.3247 31.676 36.983 32.5173 36.2913L35.7702 33.6171H39.1586L43.0302 37.4888C43.251 37.7094 43.5403 37.8198 43.8295 37.8198C44.1187 37.8198 44.408 37.7095 44.6288 37.4888C45.0702 37.0474 45.0702 36.3317 44.6288 35.8905L41.8318 33.0934C41.9437 32.918 42.0094 32.7104 42.0094 32.4869C42.0094 31.8627 41.5035 31.3567 40.8792 31.3567H35.3652C35.1034 31.3567 34.8496 31.4476 34.6474 31.6139L31.0818 34.5452C30.1802 35.2862 28.879 35.2228 28.054 34.3979C27.6279 33.9717 27.3933 33.4052 27.3933 32.8028C27.3933 32.2003 27.6279 31.6337 28.054 31.2077L32.3526 26.9089C32.5134 26.748 32.7274 26.6594 32.9549 26.6594H44.3033C44.4918 26.6594 44.6784 26.7079 44.8431 26.7998L49.0782 29.1618C49.7069 29.5128 50.5063 29.4066 51.0232 28.9014L55.4502 24.5598L67.6385 36.2023L65.8642 37.9766C65.4229 38.4179 65.4229 39.1336 65.8644 39.5748C66.085 39.7956 66.3743 39.9059 66.6635 39.9059C66.9527 39.9059 67.242 39.7956 67.4628 39.5748L69.2882 37.7495C69.7125 38.064 70.219 38.2226 70.7264 38.2226C71.3467 38.2226 71.9666 37.9883 72.4335 37.5213L76.669 33.286C77.1103 32.8444 77.1103 32.1289 76.669 31.6875Z" fill="white"/>
</svg>
