<svg width="150" height="150" viewBox="0 0 150 150" fill="none" xmlns="http://www.w3.org/2000/svg">
<path d="M110.449 21.6797H112.5V23.7305C112.5 25.3485 113.812 26.6602 115.43 26.6602C117.047 26.6602 118.359 25.3485 118.359 23.7305V21.6797H120.41C122.028 21.6797 123.34 20.3681 123.34 18.75C123.34 17.1319 122.028 15.8203 120.41 15.8203H118.359V13.7695C118.359 12.1515 117.047 10.8398 115.43 10.8398C113.812 10.8398 112.5 12.1515 112.5 13.7695V15.8203H110.449C108.831 15.8203 107.52 17.1319 107.52 18.75C107.52 20.3681 108.831 21.6797 110.449 21.6797Z" fill="#05B7FA"/>
<path d="M20.6543 94.0336H18.6035V91.9828C18.6035 90.3647 17.2916 89.0531 15.6738 89.0531C14.0561 89.0531 12.7441 90.3647 12.7441 91.9828V94.0336H10.6934C9.07559 94.0336 7.76367 95.3452 7.76367 96.9633C7.76367 98.5813 9.07559 99.8929 10.6934 99.8929H12.7441V101.944C12.7441 103.562 14.0561 104.873 15.6738 104.873C17.2916 104.873 18.6035 103.562 18.6035 101.944V99.8929H20.6543C22.2721 99.8929 23.584 98.5813 23.584 96.9633C23.584 95.3452 22.2721 94.0336 20.6543 94.0336Z" fill="#05B7FA"/>
<path d="M144.087 99.014H142.036V96.9633C142.036 95.3452 140.724 94.0336 139.107 94.0336C137.489 94.0336 136.177 95.3452 136.177 96.9633V99.014H134.126C132.508 99.014 131.197 100.326 131.197 101.944C131.197 103.562 132.508 104.873 134.126 104.873H136.177V106.924C136.177 108.542 137.489 109.854 139.107 109.854C140.724 109.854 142.036 108.542 142.036 106.924V104.873H144.087C145.705 104.873 147.017 103.562 147.017 101.944C147.017 100.326 145.705 99.014 144.087 99.014Z" fill="#05B7FA"/>
<path d="M112.418 87.1799L141.759 65.9604C146.29 62.683 148.105 57.1274 146.383 51.8065C144.66 46.4859 139.934 43.0479 134.341 43.0479H98.1259L87.0431 8.76387C85.3222 3.44004 80.5952 0 75.0001 0C69.405 0 64.6779 3.44004 62.9567 8.76387L51.8746 43.0477H15.6587C10.0662 43.0477 5.33943 46.4856 3.61707 51.8063C1.89441 57.1271 3.70964 62.6827 8.24128 65.9602L37.5818 87.1796L26.3526 121.486C24.2717 127.843 27.3616 133.425 31.7242 136.178V147.07C31.7242 148.688 33.0361 150 34.6539 150H61.8165C63.4343 150 64.7462 148.688 64.7462 147.07C64.7462 145.452 63.4343 144.141 61.8165 144.141H37.5836V135.01C37.5836 126.165 44.7798 118.969 53.6245 118.969H64.7306L72.3338 135.667C72.8095 136.712 73.8519 137.383 75.0001 137.383C76.1482 137.383 77.1906 136.712 77.6664 135.667L85.2695 118.968H96.376C105.221 118.968 112.417 126.165 112.417 135.009V144.141H88.1837C86.5659 144.141 85.254 145.452 85.254 147.07C85.254 148.688 86.5659 150 88.1837 150H115.347C116.964 150 118.276 148.688 118.276 147.07V136.178C122.639 133.425 125.728 127.843 123.648 121.486L112.418 87.1799ZM61.1617 86.0631H81.4556C84.1179 86.0631 86.6283 85.4057 88.8387 84.2505V90.8235C88.8387 99.7702 83.0189 106.264 75.0004 106.264C67.3697 106.264 61.162 100.056 61.162 92.4252V86.0631H61.1617ZM91.5938 70.0655C91.5938 75.656 87.0458 80.2037 81.4556 80.2037H61.1617V75.8373C61.1617 70.2469 65.7094 65.6991 71.2996 65.6991H91.5938V70.0655ZM75.0001 127.383L69.5456 115.404V111.349C71.2791 111.85 73.1078 112.124 75.0001 112.124C76.9082 112.124 78.734 111.853 80.4546 111.355V115.404L75.0001 127.383ZM117.43 128.997C114.81 119.837 106.366 113.109 96.376 113.109H86.3139V108.475C91.4506 104.71 94.6978 98.3405 94.6978 90.8235V79.0307C96.436 76.4716 97.4529 73.3852 97.4529 70.0652V62.7691C97.4529 61.1511 96.141 59.8395 94.5232 59.8395H71.2993C62.4783 59.8395 55.302 67.016 55.302 75.837V92.4249C55.302 99.0779 58.6208 104.967 63.6859 108.535V113.109H53.6242C43.6334 113.109 35.1897 119.836 32.5697 128.997C31.5918 127.458 31.2092 125.483 31.9211 123.308L43.8159 86.9698C44.2123 85.7593 43.7807 84.431 42.7483 83.6845L11.6755 61.2126C8.72146 59.0763 8.45574 55.8853 9.19167 53.6112C9.92761 51.3372 12.0133 48.9073 15.6587 48.9073H54.0065C55.2774 48.9073 56.4033 48.0879 56.7944 46.8788L68.5322 10.5665C69.654 7.096 72.6089 5.85938 75.0001 5.85938C77.3913 5.85938 80.3462 7.096 81.4679 10.5659L93.2057 46.8785C93.5969 48.0876 94.7227 48.907 95.9936 48.907H134.341C137.987 48.907 140.073 51.3369 140.808 53.6109C141.544 55.885 141.279 59.076 138.325 61.2123L107.252 83.6848C106.219 84.4313 105.788 85.7596 106.184 86.9701L118.079 123.308C118.79 125.483 118.408 127.459 117.43 128.997Z" fill="#05B7FA"/>
<path d="M75 144.141C74.2295 144.141 73.4736 144.454 72.9287 144.999C72.3838 145.544 72.0703 146.3 72.0703 147.07C72.0703 147.841 72.3835 148.597 72.9287 149.142C73.4739 149.687 74.2295 150 75 150C75.7705 150 76.5264 149.687 77.071 149.142C77.6159 148.597 77.9297 147.841 77.9297 147.07C77.9297 146.3 77.6162 145.544 77.071 144.999C76.5264 144.454 75.7705 144.141 75 144.141Z" fill="#05B7FA"/>
</svg>
