<svg width="57" height="75" viewBox="0 0 57 75" fill="none" xmlns="http://www.w3.org/2000/svg">
<g clip-path="url(#clip0)">
<path d="M25.3117 73.4868C3.96277 42.6315 0 39.4648 0 28.125C0 12.5919 12.6305 0 28.211 0C43.7916 0 56.422 12.5919 56.422 28.125C56.422 39.4648 52.4593 42.6315 31.1103 73.4868C29.7093 75.5045 26.7126 75.5043 25.3117 73.4868ZM28.211 39.8438C34.7029 39.8438 39.9656 34.5971 39.9656 28.125C39.9656 21.6529 34.7029 16.4062 28.211 16.4062C21.7191 16.4062 16.4564 21.6529 16.4564 28.125C16.4564 34.5971 21.7191 39.8438 28.211 39.8438Z" fill="#05B7FA"/>
</g>
<defs>
<clipPath id="clip0">
<rect width="56.422" height="75" fill="white"/>
</clipPath>
</defs>
</svg>
