<svg width="75" height="75" viewBox="0 0 75 75" fill="none" xmlns="http://www.w3.org/2000/svg">
<g clip-path="url(#clip0)">
<path d="M72.8599 52.9982L56.4536 45.9669C55.7528 45.6682 54.9738 45.6053 54.2341 45.7876C53.4944 45.9699 52.8339 46.3875 52.3521 46.9777L45.0864 55.8546C33.6837 50.4783 24.5071 41.3018 19.1309 29.8991L28.0078 22.6334C28.5991 22.1525 29.0177 21.492 29.2 20.7519C29.3824 20.0118 29.3187 19.2325 29.0186 18.5319L21.9873 2.12562C21.6579 1.37036 21.0752 0.753719 20.3399 0.382019C19.6045 0.01032 18.7625 -0.0931355 17.959 0.0894921L2.72461 3.60512C1.94995 3.784 1.25881 4.22017 0.763968 4.84245C0.269129 5.46472 -0.000178449 6.23635 8.8714e-08 7.03139C8.8714e-08 44.6046 30.4541 75.0001 67.9688 75.0001C68.764 75.0006 69.536 74.7315 70.1586 74.2366C70.7812 73.7418 71.2175 73.0504 71.3965 72.2755L74.9121 57.0411C75.0936 56.2337 74.9879 55.3884 74.6133 54.6504C74.2388 53.9125 73.6187 53.3283 72.8599 52.9982Z" fill="#05B7FA"/>
</g>
<defs>
<clipPath id="clip0">
<rect width="75" height="75" fill="white"/>
</clipPath>
</defs>
</svg>
