<svg width="77" height="77" viewBox="0 0 77 77" fill="none" xmlns="http://www.w3.org/2000/svg">
<path d="M57.9793 26.0849L47.3908 12.6965C45.5885 10.4275 42.9816 8.931 40.1173 8.51261V1.60919C40.1173 0.724135 39.3931 0 38.5081 0C37.623 0 36.8989 0.724135 36.8989 1.60919V8.51261C34.0345 8.91491 31.4276 10.4115 29.6414 12.6965L19.0208 26.101C18.1036 27.2757 17.5886 28.724 17.5886 30.2206V70.4342C17.6047 74.071 20.5656 77.0158 24.2024 76.9997C24.2185 76.9997 24.2185 76.9997 24.2346 76.9997H52.7655C56.4023 77.0319 59.3792 74.1031 59.4114 70.4664C59.4114 70.4503 59.4114 70.4503 59.4114 70.4342V30.2206C59.4114 28.724 58.8965 27.2757 57.9793 26.0849ZM38.5081 24.2022C41.0989 24.2022 43.1908 26.2941 43.1908 28.8849C43.1908 31.4757 41.0989 33.5677 38.5081 33.5677C35.9173 33.5677 33.8253 31.4757 33.8253 28.8849C33.8253 26.3102 35.9173 24.2022 38.5081 24.2022ZM56.2091 70.4342C56.2091 72.3169 54.6643 73.7813 52.7816 73.7813H24.2346C22.3518 73.7813 20.807 72.3169 20.807 70.4342V30.2206C20.807 29.4482 21.0645 28.6918 21.5472 28.0964L32.1518 14.6919C33.3426 13.1953 35.0161 12.1494 36.8989 11.7793V21.1447C32.6184 22.0298 29.8828 26.2137 30.7679 30.4941C31.6529 34.7746 35.8368 37.5102 40.1173 36.6251C44.3977 35.7401 47.1333 31.5562 46.2483 27.2757C45.6046 24.2022 43.2069 21.7884 40.1173 21.1447V11.7793C40.777 11.908 41.4207 12.1333 42.0322 12.4229C43.1264 12.954 44.092 13.7264 44.8483 14.6919L55.4689 28.0803C55.9517 28.6918 56.2091 29.4482 56.2091 30.2206V70.4342Z" fill="white"/>
<path d="M43.6414 58.6871C42.9334 56.4503 40.8575 54.9216 38.5081 54.9216C37.3173 54.9216 36.3518 53.9561 36.3518 52.7653C36.3518 51.5745 37.3173 50.609 38.5081 50.609C39.6989 50.609 40.6644 51.5745 40.6644 52.7653C40.6644 53.6504 41.3886 54.3745 42.2736 54.3745C43.1587 54.3745 43.8828 53.6504 43.8828 52.7653C43.8828 50.4159 42.3541 48.34 40.1173 47.632V46.9239C40.1173 46.0389 39.3932 45.3148 38.5081 45.3148C37.6231 45.3148 36.8989 46.0389 36.8989 46.9239V47.632C34.0667 48.517 32.4897 51.5423 33.3748 54.3745C34.0828 56.6113 36.1587 58.14 38.5081 58.14C39.6989 58.14 40.6644 59.1055 40.6644 60.2963C40.6644 61.4871 39.6989 62.4526 38.5081 62.4526C37.3173 62.4526 36.3518 61.4871 36.3518 60.2963C36.3518 59.4112 35.6277 58.6871 34.7426 58.6871C33.8576 58.6871 33.1334 59.4112 33.1334 60.2963C33.1334 62.6457 34.6621 64.7216 36.8989 65.4296V66.2342C36.8989 67.1193 37.6231 67.8434 38.5081 67.8434C39.3932 67.8434 40.1173 67.1193 40.1173 66.2342V65.4296C42.9495 64.5446 44.5265 61.5193 43.6414 58.6871Z" fill="white"/>
</svg>
