<svg width="115" height="115" viewBox="0 0 115 115" fill="none" xmlns="http://www.w3.org/2000/svg">
<path d="M76.9793 45.0849L66.3908 31.6965C64.5885 29.4275 61.9816 27.931 59.1173 27.5126V20.6092C59.1173 19.7241 58.3931 19 57.5081 19C56.623 19 55.8989 19.7241 55.8989 20.6092V27.5126C53.0345 27.9149 50.4276 29.4115 48.6414 31.6965L38.0208 45.101C37.1036 46.2757 36.5886 47.724 36.5886 49.2206V89.4342C36.6047 93.071 39.5656 96.0158 43.2024 95.9997C43.2185 95.9997 43.2185 95.9997 43.2346 95.9997H71.7655C75.4023 96.0319 78.3792 93.1031 78.4114 89.4664C78.4114 89.4503 78.4114 89.4503 78.4114 89.4342V49.2206C78.4114 47.724 77.8965 46.2757 76.9793 45.0849ZM57.5081 43.2022C60.0989 43.2022 62.1908 45.2941 62.1908 47.8849C62.1908 50.4757 60.0989 52.5677 57.5081 52.5677C54.9173 52.5677 52.8253 50.4757 52.8253 47.8849C52.8253 45.3102 54.9173 43.2022 57.5081 43.2022ZM75.2091 89.4342C75.2091 91.3169 73.6643 92.7813 71.7816 92.7813H43.2346C41.3518 92.7813 39.807 91.3169 39.807 89.4342V49.2206C39.807 48.4482 40.0645 47.6918 40.5472 47.0964L51.1518 33.6919C52.3426 32.1953 54.0161 31.1494 55.8989 30.7793V40.1447C51.6184 41.0298 48.8828 45.2137 49.7679 49.4941C50.6529 53.7746 54.8368 56.5102 59.1173 55.6251C63.3977 54.7401 66.1333 50.5562 65.2483 46.2757C64.6046 43.2022 62.2069 40.7884 59.1173 40.1447V30.7793C59.777 30.908 60.4207 31.1333 61.0322 31.4229C62.1264 31.954 63.092 32.7264 63.8483 33.6919L74.4689 47.0803C74.9517 47.6918 75.2091 48.4482 75.2091 49.2206V89.4342Z" fill="white"/>
<path d="M62.6414 77.6871C61.9334 75.4503 59.8575 73.9216 57.5081 73.9216C56.3173 73.9216 55.3518 72.9561 55.3518 71.7653C55.3518 70.5745 56.3173 69.609 57.5081 69.609C58.6989 69.609 59.6644 70.5745 59.6644 71.7653C59.6644 72.6504 60.3886 73.3745 61.2736 73.3745C62.1587 73.3745 62.8828 72.6504 62.8828 71.7653C62.8828 69.4159 61.3541 67.34 59.1173 66.632V65.9239C59.1173 65.0389 58.3932 64.3148 57.5081 64.3148C56.6231 64.3148 55.8989 65.0389 55.8989 65.9239V66.632C53.0667 67.517 51.4897 70.5423 52.3748 73.3745C53.0828 75.6113 55.1587 77.14 57.5081 77.14C58.6989 77.14 59.6644 78.1055 59.6644 79.2963C59.6644 80.4871 58.6989 81.4526 57.5081 81.4526C56.3173 81.4526 55.3518 80.4871 55.3518 79.2963C55.3518 78.4112 54.6277 77.6871 53.7426 77.6871C52.8576 77.6871 52.1334 78.4112 52.1334 79.2963C52.1334 81.6457 53.6621 83.7216 55.8989 84.4296V85.2342C55.8989 86.1193 56.6231 86.8434 57.5081 86.8434C58.3932 86.8434 59.1173 86.1193 59.1173 85.2342V84.4296C61.9495 83.5446 63.5265 80.5193 62.6414 77.6871Z" fill="white"/>
<circle cx="57.5" cy="57.5" r="57" stroke="white"/>
</svg>
