<svg width="150" height="150" viewBox="0 0 150 150" fill="none" xmlns="http://www.w3.org/2000/svg">
<path d="M145.633 26.6613C145.624 26.6613 145.615 26.6602 145.605 26.6602H105.762V22.2656C105.762 14.9963 99.8474 9.08203 92.5781 9.08203H57.4219C50.1526 9.08203 44.2383 14.9963 44.2383 22.2656V26.6602H4.39453C1.94778 26.6602 0 28.6652 0 31.0547V127.734C0 135.004 5.91431 140.918 13.1836 140.918H136.816C144.086 140.918 150 135.004 150 127.734V31.1474C150 31.1417 150 31.1359 150 31.1302C149.832 28.244 148.057 26.6773 145.633 26.6613ZM53.0273 22.2656C53.0273 19.8429 54.9992 17.8711 57.4219 17.8711H92.5781C95.0008 17.8711 96.9727 19.8429 96.9727 22.2656V26.6602H53.0273V22.2656ZM139.508 35.4492L125.861 76.3893C125.262 78.1872 123.587 79.3945 121.693 79.3945H96.9727V75C96.9727 72.5727 95.0054 70.6055 92.5781 70.6055H57.4219C54.9946 70.6055 53.0273 72.5727 53.0273 75V79.3945H28.307C26.413 79.3945 24.7375 78.1872 24.139 76.3893L10.4919 35.4492H139.508ZM88.1836 79.3945V88.1836H61.8164V79.3945H88.1836ZM141.211 127.734C141.211 130.157 139.239 132.129 136.816 132.129H13.1836C10.7609 132.129 8.78906 130.157 8.78906 127.734V58.1348L15.8009 79.1691C17.5976 84.5615 22.6238 88.1836 28.307 88.1836H53.0273V92.5781C53.0273 95.0054 54.9946 96.9727 57.4219 96.9727H92.5781C95.0054 96.9727 96.9727 95.0054 96.9727 92.5781V88.1836H121.693C127.376 88.1836 132.402 84.5615 134.199 79.1691L141.211 58.1348V127.734Z" fill="#05B7FA"/>
</svg>
