<svg width="77" height="77" viewBox="0 0 77 77" fill="none" xmlns="http://www.w3.org/2000/svg">
<g clip-path="url(#clip0)">
<path d="M37.2003 51.607C37.0414 50.7808 36.5875 50.0617 35.9206 49.5588L40.8612 42.2634C41.2116 41.7457 41.0763 41.042 40.5587 40.6914C40.0409 40.3408 39.3373 40.4764 38.9867 40.9938L34.0508 48.2821L28.3714 44.4359L56.5986 2.7553C59.5234 5.32453 60.151 9.74216 57.9123 13.0481L41.7414 36.9265C41.3909 37.4442 41.5263 38.1479 42.044 38.4985C42.5614 38.849 43.2653 38.7138 43.6159 38.1961L59.7868 14.3175C62.9131 9.70095 61.701 3.40172 57.0845 0.27527L56.9655 0.194675C56.448 -0.155777 55.7441 -0.0203961 55.3936 0.497132L26.492 43.1738C24.9693 42.2536 22.9708 42.6753 21.962 44.1649L20.0097 47.0476C16.4793 47.4766 13.2242 49.1416 10.7938 51.7733C8.2234 54.5566 6.80786 58.1771 6.80786 61.9681C6.80786 70.2567 13.5511 77 21.8397 77C30.1283 77 36.8716 70.2567 36.8716 61.9681C36.8716 59.813 36.428 57.7419 35.552 55.8016L36.6816 54.1335C37.1861 53.3881 37.3706 52.4908 37.2003 51.607ZM34.8071 52.8639L33.3135 55.0693C33.083 55.4096 33.0551 55.848 33.2406 56.2148C34.1478 58.0087 34.6077 59.9442 34.6077 61.968C34.6077 69.0083 28.88 74.7359 21.8397 74.7359C14.7994 74.7359 9.07176 69.0083 9.07176 61.968C9.07176 58.7481 10.274 55.673 12.4571 53.3091C14.6278 50.9586 17.5718 49.5161 20.7467 49.2471C21.0874 49.2183 21.3968 49.037 21.5884 48.7539L23.8366 45.4342C24.0502 45.1189 24.399 44.9489 24.7538 44.9489C24.9671 44.9489 25.1828 45.0103 25.3723 45.1387L34.5117 51.3281C35.0162 51.6702 35.1489 52.3591 34.8071 52.8639Z" fill="white"/>
<path d="M21.8397 52.9732C16.8799 52.9732 12.8447 57.0082 12.8447 61.968C12.8447 63.6707 13.3251 65.3306 14.234 66.768C14.568 67.2964 15.2676 67.4538 15.7956 67.12C16.324 66.786 16.4816 66.0868 16.1475 65.5584C15.4678 64.4833 15.1086 63.2418 15.1086 61.968C15.1086 58.2565 18.1282 55.2371 21.8397 55.2371C25.5511 55.2371 28.5707 58.2565 28.5707 61.968C28.5707 65.6794 25.5511 68.699 21.8397 68.699C20.9777 68.699 20.1355 68.5364 19.3365 68.216C18.7565 67.9833 18.0973 68.2649 17.8646 68.8452C17.6318 69.4256 17.9135 70.0845 18.4938 70.3172C19.5619 70.7456 20.6876 70.9629 21.8397 70.9629C26.7994 70.9629 30.8346 66.9279 30.8346 61.968C30.8345 57.0084 26.7994 52.9732 21.8397 52.9732Z" fill="white"/>
<path d="M34.7965 24.0114C35.0153 24.3345 35.372 24.5087 35.7348 24.5087C35.9532 24.5087 36.174 24.4456 36.3685 24.3138C36.8861 23.9632 37.0214 23.2594 36.671 22.7418L30.7983 14.0701C30.4478 13.5524 29.7442 13.4172 29.2262 13.7677C28.7087 14.1183 28.5733 14.822 28.9238 15.3397L34.7965 24.0114Z" fill="white"/>
<path d="M29.2872 32.1465C29.5061 32.4696 29.8626 32.6438 30.2256 32.6438C30.4439 32.6438 30.6647 32.5807 30.8591 32.449C31.3768 32.0984 31.5122 31.3946 31.1617 30.8769L19.1466 13.1352C17.9553 11.3763 17.5205 9.25875 17.922 7.17279C18.2536 5.44936 19.1235 3.91775 20.4084 2.76543L26.1694 11.2723C26.5198 11.7899 27.2236 11.9252 27.7413 11.5747C28.259 11.2241 28.3944 10.5204 28.0439 10.0027L21.6064 0.4973C21.438 0.248573 21.1776 0.0771199 20.8827 0.0203715C20.5878 -0.036377 20.2822 0.0265594 20.0338 0.195145L20.0027 0.216274C17.743 1.74652 16.2146 4.06506 15.6988 6.74492C15.1831 9.42477 15.7417 12.1449 17.2721 14.4045L29.2872 32.1465Z" fill="white"/>
<path d="M66.2062 51.7733C63.7757 49.1415 60.5206 47.4766 56.9901 47.0477L55.0379 44.165C54.0289 42.6753 52.0299 42.2535 50.5078 43.1738L47.7127 39.0463C47.3621 38.5286 46.6581 38.3931 46.1408 38.7438C45.6231 39.0944 45.4877 39.7982 45.8381 40.3159L48.6283 44.436L42.949 48.2823L42.2034 47.1814C41.8528 46.6637 41.1493 46.5285 40.6313 46.8789C40.1136 47.2295 39.9784 47.9333 40.3289 48.451L41.0793 49.5589C40.4123 50.0618 39.9586 50.781 39.7996 51.6072C39.6293 52.491 39.8138 53.3883 40.3185 54.1335L41.448 55.8016C40.572 57.7419 40.1284 59.8131 40.1284 61.9681C40.1284 70.2567 46.8717 77 55.1603 77C63.4489 77 70.1922 70.2567 70.1922 61.9681C70.1922 58.1772 68.7766 54.5566 66.2062 51.7733ZM55.1603 74.7361C48.1202 74.7361 42.3923 69.0084 42.3923 61.9681C42.3923 59.9444 42.8522 58.0089 43.7594 56.215C43.9449 55.8482 43.917 55.4098 43.6865 55.0694L42.193 52.8641C41.851 52.3592 41.9836 51.6703 42.4885 51.3284L51.628 45.1391C52.1326 44.7972 52.8214 44.9296 53.1635 45.4346L55.4117 48.7542C55.6036 49.0372 55.9128 49.2186 56.2535 49.2474C59.4284 49.5164 62.3723 50.9589 64.5431 53.3095C66.7261 55.6733 67.9284 58.7484 67.9284 61.9683C67.9283 69.0083 62.2006 74.7361 55.1603 74.7361Z" fill="white"/>
<path d="M55.1602 52.9732C50.2005 52.9732 46.1653 57.0082 46.1653 61.968C46.1653 66.9277 50.2003 70.9629 55.1602 70.9629C60.1201 70.9629 64.1552 66.9279 64.1552 61.968C64.1552 57.0084 60.12 52.9732 55.1602 52.9732ZM55.1602 68.699C51.4488 68.699 48.4292 65.6796 48.4292 61.968C48.4292 58.2565 51.4488 55.2371 55.1602 55.2371C58.8717 55.2371 61.8913 58.2565 61.8913 61.968C61.8913 65.6796 58.8717 68.699 55.1602 68.699Z" fill="white"/>
<path d="M37.2915 35.4174V36.1335C37.2915 36.7587 37.7982 37.2655 38.4235 37.2655C39.0488 37.2655 39.5554 36.7587 39.5554 36.1335V35.4174C39.5554 34.7922 39.0488 34.2854 38.4235 34.2854C37.7983 34.2854 37.2915 34.7921 37.2915 35.4174Z" fill="white"/>
</g>
<defs>
<clipPath id="clip0">
<rect width="77" height="77" fill="white"/>
</clipPath>
</defs>
</svg>
