<svg width="27" height="30" viewBox="0 0 27 30" fill="none" xmlns="http://www.w3.org/2000/svg">
<g clip-path="url(#clip0)">
<path d="M13.6067 1.875C6.20926 1.875 0.213867 7.33008 0.213867 14.0625C0.213867 16.9688 1.33343 19.6289 3.19587 21.7207C2.54192 24.6738 0.35512 27.3047 0.328962 27.334C0.213867 27.4688 0.182478 27.668 0.250488 27.8438C0.318499 28.0195 0.464983 28.125 0.632394 28.125C4.10093 28.125 6.70103 26.2617 7.988 25.1133C9.69873 25.834 11.5978 26.25 13.6067 26.25C21.0042 26.25 26.9996 20.7949 26.9996 14.0625C26.9996 7.33008 21.0042 1.875 13.6067 1.875Z" fill="#FF793F"/>
</g>
<defs>
<clipPath id="clip0">
<rect width="26.7857" height="30" fill="white" transform="translate(0.213867)"/>
</clipPath>
</defs>
</svg>
