<svg width="28" height="24" viewBox="0 0 28 24" fill="none" xmlns="http://www.w3.org/2000/svg">
<g clip-path="url(#clip0)">
<path d="M4.33915 10.5C5.81655 10.5 7.01772 9.15469 7.01772 7.5C7.01772 5.84531 5.81655 4.5 4.33915 4.5C2.86175 4.5 1.66057 5.84531 1.66057 7.5C1.66057 9.15469 2.86175 10.5 4.33915 10.5ZM23.0891 10.5C24.5665 10.5 25.7677 9.15469 25.7677 7.5C25.7677 5.84531 24.5665 4.5 23.0891 4.5C21.6117 4.5 20.4106 5.84531 20.4106 7.5C20.4106 9.15469 21.6117 10.5 23.0891 10.5ZM24.4284 12H21.7499C21.0133 12 20.3478 12.3328 19.8623 12.8719C21.549 13.9078 22.746 15.7781 23.0054 18H25.7677C26.5085 18 27.107 17.3297 27.107 16.5V15C27.107 13.3453 25.9058 12 24.4284 12ZM13.7141 12C16.3048 12 18.4016 9.65156 18.4016 6.75C18.4016 3.84844 16.3048 1.5 13.7141 1.5C11.1235 1.5 9.02665 3.84844 9.02665 6.75C9.02665 9.65156 11.1235 12 13.7141 12ZM16.9284 13.5H16.5811C15.7105 13.9688 14.7437 14.25 13.7141 14.25C12.6846 14.25 11.722 13.9688 10.8472 13.5H10.4999C7.83803 13.5 5.67843 15.9188 5.67843 18.9V20.25C5.67843 21.4922 6.57826 22.5 7.68736 22.5H19.7409C20.85 22.5 21.7499 21.4922 21.7499 20.25V18.9C21.7499 15.9188 19.5903 13.5 16.9284 13.5ZM7.56599 12.8719C7.0805 12.3328 6.41504 12 5.67843 12H2.99986C1.52246 12 0.321289 13.3453 0.321289 15V16.5C0.321289 17.3297 0.919782 18 1.66057 18H4.41867C4.68234 15.7781 5.87933 13.9078 7.56599 12.8719Z" fill="#FF793F"/>
</g>
<defs>
<clipPath id="clip0">
<rect width="26.7857" height="24" fill="white" transform="translate(0.321289)"/>
</clipPath>
</defs>
</svg>
