<svg width="150" height="150" viewBox="0 0 150 150" fill="none" xmlns="http://www.w3.org/2000/svg">
<path d="M142.95 21.8406H109.684C109.929 21.0745 109.741 20.212 109.147 19.6175L98.8508 9.32113C98.0914 8.56146 96.894 8.46244 96.0198 9.08676L92.3513 11.7071C90.0766 10.4617 87.6796 9.46703 85.194 8.73871L84.4481 4.26243C84.2717 3.20276 83.355 2.42639 82.2807 2.42639H67.7199C66.6455 2.42639 65.7291 3.20276 65.5525 4.26243L64.8066 8.73871C62.3324 9.4641 59.9453 10.4529 57.6795 11.691L53.9588 9.03314C53.0843 8.40853 51.8872 8.50785 51.1278 9.26752L40.8317 19.5636C40.2232 20.1721 40.0398 21.0613 40.3114 21.8403H7.05089C3.1629 21.8406 0 25.0035 0 28.8915V116.255C0 120.143 3.1629 123.306 7.05089 123.306H58.2429L58.2432 133.472H41.026C39.8125 133.472 38.8287 134.456 38.8287 135.669V143.179H36.1726C34.9591 143.179 33.9754 144.163 33.9754 145.376C33.9754 146.59 34.9591 147.574 36.1726 147.574H113.829C115.042 147.574 116.026 146.59 116.026 145.376C116.026 144.163 115.042 143.179 113.829 143.179H111.172V135.669C111.172 134.456 110.189 133.472 108.975 133.472H91.758V123.306H142.949C146.837 123.306 150 120.143 150 116.255V28.8915C150 25.0035 146.837 21.8406 142.95 21.8406ZM44.1815 35.6831C44.9391 32.6673 46.1374 29.7833 47.7429 27.1111C48.1937 26.3608 48.1562 25.4145 47.6474 24.7023L45.2561 21.3548L52.919 13.6911L56.2715 16.0855C56.9834 16.5938 57.9288 16.6319 58.6791 16.1819C61.3583 14.5747 64.2502 13.3767 67.2748 12.6214C68.1236 12.4093 68.7661 11.7138 68.9099 10.851L69.5814 6.82093H80.4195L81.0913 10.851C81.2351 11.7141 81.8773 12.4096 82.7263 12.6214C85.7615 13.3796 88.6628 14.5829 91.349 16.198C92.0996 16.6492 93.0459 16.6117 93.7584 16.1028L97.0599 13.7447L104.724 21.4085L102.362 24.7146C101.853 25.4265 101.816 26.3725 102.266 27.1225C103.883 29.8164 105.086 32.7256 105.842 35.7692C106.053 36.6194 106.749 37.2631 107.613 37.4072L111.594 38.0708V48.9089L107.594 49.5757C106.731 49.7196 106.036 50.3606 105.823 51.2084C105.06 54.2512 103.85 57.1577 102.227 59.8469C101.774 60.5978 101.811 61.5458 102.32 62.2595L104.67 65.549L97.0062 73.2128L93.6881 70.8429C92.977 70.3352 92.0328 70.2968 91.2834 70.7451C88.593 72.3538 85.6891 73.55 82.6528 74.3006C81.8014 74.5109 81.1569 75.2073 81.0128 76.0724L80.3442 80.0829H69.5061L68.8311 76.0338C68.6875 75.1727 68.0477 74.4781 67.2013 74.2645C64.1782 73.5016 61.2889 72.2966 58.6135 70.683C57.8629 70.2303 56.9149 70.267 56.2015 70.7764L52.866 73.1589L45.2022 65.4951L47.6055 62.1309C48.1132 61.4202 48.1516 60.4762 47.7036 59.7265C46.1049 57.0514 44.9137 54.1648 44.1634 51.1466C43.9521 50.2967 43.256 49.6533 42.3924 49.5095L38.3324 48.8327V37.9946L42.4117 37.3149C43.2736 37.1714 43.9685 36.5304 44.1815 35.6831ZM33.937 45.6487V50.6943C33.937 51.7686 34.7133 52.685 35.773 52.8616L40.2777 53.6125C40.9981 56.0793 41.981 58.4606 43.2115 60.7208L40.5437 64.4556C39.9194 65.3295 40.0184 66.5269 40.7781 67.2866L51.0742 77.5827C51.8339 78.3424 53.0307 78.4414 53.9052 77.8171L57.606 75.1736C59.8689 76.417 62.2542 77.4116 64.7269 78.1426L65.4769 82.6417C65.6535 83.7014 66.57 84.4777 67.6443 84.4777H82.2051C83.2795 84.4777 84.1959 83.7014 84.3725 82.6417L85.1149 78.1885C87.6013 77.4658 90.0011 76.477 92.2783 75.2366L95.9665 77.871C96.8404 78.4953 98.0378 78.396 98.7975 77.6366L109.094 67.3405C109.853 66.5811 109.952 65.3837 109.328 64.5095L106.718 60.855C107.971 58.576 108.971 56.1722 109.704 53.679L114.152 52.9378C115.212 52.7612 115.988 51.8447 115.988 50.7704V45.6493H138.326V92.2165H11.6748V45.6487H33.937ZM11.6748 41.2542V33.5154H38.4774L35.773 33.966C34.7136 34.1424 33.937 35.0591 33.937 36.1334V41.2542H11.6748ZM138.326 41.2542H115.988V36.2093C115.988 35.1352 115.212 34.2185 114.152 34.0419L110.992 33.5154H138.326V41.2542ZM4.39454 28.8915C4.39454 27.4266 5.58605 26.2351 7.05089 26.2351H43.1846C42.6739 27.1767 42.2078 28.14 41.7839 29.1209H9.47756C8.26408 29.1209 7.28029 30.1047 7.28029 31.3181V94.4132C7.28029 95.6267 8.26408 96.6105 9.47756 96.6105H140.523C141.737 96.6105 142.72 95.6267 142.72 94.4132V31.3181C142.72 30.1047 141.737 29.1209 140.523 29.1209H108.216C107.793 28.14 107.327 27.1767 106.816 26.2351H142.949C144.414 26.2351 145.605 27.4266 145.605 28.8915V99.4965H4.39454V28.8915ZM106.778 137.866V143.179H43.2232V137.866H60.432C60.4349 137.866 60.4375 137.866 60.4404 137.866H89.5607C89.5637 137.866 89.5663 137.866 89.5692 137.866H106.778ZM62.6374 123.306H87.3637V133.472H62.6377L62.6374 123.306ZM145.606 116.254C145.606 117.719 144.414 118.911 142.95 118.911H7.05089C5.58605 118.911 4.39454 117.719 4.39454 116.254V103.891H145.606V116.254Z" fill="#05B7FA"/>
<path d="M75.0006 117.238C78.2194 117.238 80.8383 114.619 80.8383 111.4C80.8383 108.182 78.2197 105.563 75.0006 105.563C71.7817 105.563 69.1628 108.182 69.1628 111.4C69.1628 114.619 71.7817 117.238 75.0006 117.238ZM75.0006 109.957C75.7963 109.957 76.4437 110.605 76.4437 111.4C76.4437 112.196 75.7966 112.844 75.0006 112.844C74.2049 112.844 73.5574 112.196 73.5574 111.4C73.5574 110.605 74.2049 109.957 75.0006 109.957Z" fill="#05B7FA"/>
<path d="M21.6114 35.1874H16.7581C15.5446 35.1874 14.5608 36.1712 14.5608 37.3846C14.5608 38.5981 15.5446 39.5819 16.7581 39.5819H21.6114C22.8249 39.5819 23.8087 38.5981 23.8087 37.3846C23.8087 36.1712 22.8249 35.1874 21.6114 35.1874Z" fill="#05B7FA"/>
<path d="M75.0004 57.783C82.9026 57.783 89.3313 51.3541 89.3313 43.4522C89.3313 35.5499 82.9024 29.121 75.0004 29.121C67.0981 29.121 60.6692 35.5499 60.6692 43.4522C60.6692 51.3541 67.0981 57.783 75.0004 57.783ZM75.0004 53.3885C70.2765 53.3885 66.315 50.0741 65.3119 45.6494H84.6892C83.6857 50.0741 79.7242 53.3885 75.0004 53.3885ZM75.0004 33.5152C79.7242 33.5152 83.686 36.8296 84.6889 41.2546H65.3116C66.3147 36.8299 70.2765 33.5152 75.0004 33.5152Z" fill="#05B7FA"/>
<path d="M75.0003 67.4898C88.2551 67.4898 99.0384 56.7062 99.0384 43.4517C99.0384 30.1969 88.2548 19.4136 75.0003 19.4136C61.7455 19.4136 50.9622 30.1972 50.9622 43.4517C50.9622 56.7065 61.7455 67.4898 75.0003 67.4898ZM75.0003 23.8081C85.832 23.8081 94.6439 32.6203 94.6439 43.4517C94.6439 54.2831 85.8317 63.0953 75.0003 63.0953C64.1689 63.0953 55.3567 54.2831 55.3567 43.4517C55.3567 32.6203 64.1686 23.8081 75.0003 23.8081Z" fill="#05B7FA"/>
</svg>
