<svg width="150" height="150" viewBox="0 0 150 150" fill="none" xmlns="http://www.w3.org/2000/svg">
<g clip-path="url(#clip0)">
<path d="M147.798 145.597H133.562V58.5619C133.562 57.3461 132.576 56.3602 131.36 56.3602H107.877C106.661 56.3602 105.675 57.3461 105.675 58.5619V145.597H88.9433V84.3935C88.9433 83.1777 87.9577 82.1919 86.7416 82.1919H63.2584C62.0423 82.1919 61.0567 83.1777 61.0567 84.3935V145.597H44.325V96.1351C44.325 94.9193 43.3395 93.9335 42.1233 93.9335H18.6401C17.424 93.9335 16.4385 94.9193 16.4385 96.1351V145.597H2.20166C0.985547 145.597 0 146.583 0 147.798C0 149.014 0.985547 150 2.20166 150H147.798C149.014 150 150 149.014 150 147.798C150 146.583 149.014 145.597 147.798 145.597ZM39.9217 145.597H20.8415V98.3368H39.9217V145.597ZM84.5402 145.597H65.4601V86.5952H84.5402V145.597ZM129.158 145.597H110.078V60.7635H129.158V145.597Z" fill="#05B7FA"/>
<path d="M142.971 1.72681C141.487 0.416944 139.512 -0.19331 137.549 0.05337L118.763 2.40181C115.033 2.86792 112.307 6.3686 112.774 10.1019C113.245 13.8745 116.696 16.563 120.474 16.0914L122.007 15.9C98.9487 42.6352 71.5365 56.4522 52.166 63.3961C28.0134 72.0548 9.21445 72.7955 9.03134 72.8016C5.23359 72.9203 2.23711 76.1069 2.35195 79.9052C2.46562 83.6564 5.49287 86.5946 9.24433 86.5946C9.31406 86.5946 9.38408 86.5937 9.45586 86.5914C10.2917 86.5662 30.2197 85.8624 56.4741 76.5074C71.2333 71.248 85.1212 64.2663 97.7514 55.7564C98.7598 55.0773 99.0264 53.7085 98.3467 52.7004C97.6676 51.6917 96.2994 51.4254 95.2907 52.1048C82.9661 60.4093 69.409 67.2241 54.9961 72.3598C29.3868 81.4849 10.1294 82.1658 9.32402 82.1901L9.24433 82.1913C7.88847 82.1913 6.79394 81.1287 6.75293 79.7719C6.71132 78.3979 7.79531 77.2454 9.16992 77.2023C9.3621 77.1961 28.6975 76.4866 53.6519 67.5408C74.5579 60.0463 104.597 44.7437 128.982 14.4027C130.196 12.8921 128.912 10.5985 126.993 10.839L119.929 11.722C118.704 11.8735 117.515 11.071 117.204 9.87515C116.83 8.43608 117.836 6.95483 119.309 6.77026L138.097 4.42183C139.564 4.23638 140.901 5.42202 140.901 6.89771V25.6843C140.901 27.0601 139.782 28.1795 138.405 28.1795C137.029 28.1795 135.91 27.0604 135.91 25.6843V19.989C135.91 19.0893 135.328 18.2479 134.487 17.93C133.618 17.6016 132.591 17.8773 132.003 18.5968C123.78 28.6723 114.417 37.7895 104.174 45.695C103.212 46.4379 103.034 47.8205 103.777 48.7832C104.52 49.7458 105.903 49.9237 106.865 49.181C115.787 42.2948 124.058 34.5132 131.514 25.9952C131.677 29.6552 134.706 32.5832 138.406 32.5832C142.209 32.5832 145.304 29.4885 145.304 25.6849V6.89829C145.304 4.92075 144.454 3.0355 142.971 1.72681Z" fill="#05B7FA"/>
</g>
<defs>
<clipPath id="clip0">
<rect width="150" height="150" fill="white"/>
</clipPath>
</defs>
</svg>
