<svg width="115" height="115" viewBox="0 0 115 115" fill="none" xmlns="http://www.w3.org/2000/svg">
<circle cx="57.5" cy="57.5" r="57" stroke="white"/>
<g clip-path="url(#clip0)">
<path d="M56.2003 73.607C56.0414 72.7808 55.5875 72.0617 54.9206 71.5588L59.8612 64.2634C60.2116 63.7457 60.0763 63.042 59.5587 62.6914C59.0409 62.3408 58.3373 62.4764 57.9867 62.9938L53.0508 70.2821L47.3714 66.4359L75.5986 24.7553C78.5234 27.3245 79.151 31.7422 76.9123 35.0481L60.7414 58.9265C60.3909 59.4442 60.5263 60.1479 61.044 60.4985C61.5614 60.849 62.2653 60.7138 62.6159 60.1961L78.7868 36.3175C81.9131 31.701 80.701 25.4017 76.0845 22.2753L75.9655 22.1947C75.448 21.8442 74.7441 21.9796 74.3936 22.4971L45.492 65.1738C43.9693 64.2536 41.9708 64.6753 40.962 66.1649L39.0097 69.0476C35.4793 69.4766 32.2242 71.1416 29.7938 73.7733C27.2234 76.5566 25.8079 80.1771 25.8079 83.9681C25.8079 92.2567 32.5511 99 40.8397 99C49.1283 99 55.8716 92.2567 55.8716 83.9681C55.8716 81.813 55.428 79.7419 54.552 77.8016L55.6816 76.1335C56.1861 75.3881 56.3706 74.4908 56.2003 73.607ZM53.8071 74.8639L52.3135 77.0693C52.083 77.4096 52.0551 77.848 52.2406 78.2148C53.1478 80.0087 53.6077 81.9442 53.6077 83.968C53.6077 91.0083 47.88 96.7359 40.8397 96.7359C33.7994 96.7359 28.0718 91.0083 28.0718 83.968C28.0718 80.7481 29.274 77.673 31.4571 75.3091C33.6278 72.9586 36.5718 71.5161 39.7467 71.2471C40.0874 71.2183 40.3968 71.037 40.5884 70.7539L42.8366 67.4342C43.0502 67.1189 43.399 66.9489 43.7538 66.9489C43.9671 66.9489 44.1828 67.0103 44.3723 67.1387L53.5117 73.3281C54.0162 73.6702 54.1489 74.3591 53.8071 74.8639Z" fill="white"/>
<path d="M40.8397 74.9732C35.8799 74.9732 31.8447 79.0082 31.8447 83.968C31.8447 85.6707 32.3251 87.3306 33.234 88.768C33.568 89.2964 34.2676 89.4538 34.7956 89.12C35.324 88.786 35.4816 88.0868 35.1475 87.5584C34.4678 86.4833 34.1086 85.2418 34.1086 83.968C34.1086 80.2565 37.1282 77.2371 40.8397 77.2371C44.5511 77.2371 47.5707 80.2565 47.5707 83.968C47.5707 87.6794 44.5511 90.699 40.8397 90.699C39.9777 90.699 39.1355 90.5364 38.3365 90.216C37.7565 89.9833 37.0973 90.2649 36.8646 90.8452C36.6318 91.4256 36.9135 92.0845 37.4938 92.3172C38.5619 92.7456 39.6876 92.9629 40.8397 92.9629C45.7994 92.9629 49.8346 88.9279 49.8346 83.968C49.8345 79.0084 45.7994 74.9732 40.8397 74.9732Z" fill="white"/>
<path d="M53.7965 46.0114C54.0153 46.3345 54.372 46.5087 54.7348 46.5087C54.9532 46.5087 55.174 46.4456 55.3685 46.3138C55.8861 45.9632 56.0214 45.2594 55.671 44.7418L49.7983 36.0701C49.4478 35.5524 48.7442 35.4172 48.2262 35.7677C47.7087 36.1183 47.5733 36.822 47.9238 37.3397L53.7965 46.0114Z" fill="white"/>
<path d="M48.2872 54.1465C48.5061 54.4696 48.8626 54.6438 49.2256 54.6438C49.4439 54.6438 49.6647 54.5807 49.8591 54.449C50.3768 54.0984 50.5122 53.3946 50.1617 52.8769L38.1466 35.1352C36.9553 33.3763 36.5205 31.2588 36.922 29.1728C37.2536 27.4494 38.1235 25.9178 39.4084 24.7654L45.1694 33.2723C45.5198 33.7899 46.2236 33.9252 46.7413 33.5747C47.259 33.2241 47.3944 32.5204 47.0439 32.0027L40.6064 22.4973C40.438 22.2486 40.1776 22.0771 39.8827 22.0204C39.5878 21.9636 39.2822 22.0266 39.0338 22.1951L39.0027 22.2163C36.743 23.7465 35.2146 26.0651 34.6988 28.7449C34.1831 31.4248 34.7417 34.1449 36.2721 36.4045L48.2872 54.1465Z" fill="white"/>
<path d="M85.2062 73.7733C82.7757 71.1415 79.5206 69.4766 75.9901 69.0477L74.0379 66.165C73.0289 64.6753 71.0299 64.2535 69.5078 65.1738L66.7127 61.0463C66.3621 60.5286 65.6581 60.3931 65.1408 60.7438C64.6231 61.0944 64.4877 61.7982 64.8381 62.3159L67.6283 66.436L61.949 70.2823L61.2034 69.1814C60.8528 68.6637 60.1493 68.5285 59.6313 68.8789C59.1136 69.2295 58.9784 69.9333 59.3289 70.451L60.0793 71.5589C59.4123 72.0618 58.9586 72.781 58.7996 73.6072C58.6293 74.491 58.8138 75.3883 59.3185 76.1335L60.448 77.8016C59.572 79.7419 59.1284 81.8131 59.1284 83.9681C59.1284 92.2567 65.8717 99 74.1603 99C82.4489 99 89.1922 92.2567 89.1922 83.9681C89.1922 80.1772 87.7766 76.5566 85.2062 73.7733ZM74.1603 96.7361C67.1202 96.7361 61.3923 91.0084 61.3923 83.9681C61.3923 81.9444 61.8522 80.0089 62.7594 78.215C62.9449 77.8482 62.917 77.4098 62.6865 77.0694L61.193 74.8641C60.851 74.3592 60.9836 73.6703 61.4885 73.3284L70.628 67.1391C71.1326 66.7972 71.8214 66.9296 72.1635 67.4346L74.4117 70.7542C74.6036 71.0372 74.9128 71.2186 75.2535 71.2474C78.4284 71.5164 81.3723 72.9589 83.5431 75.3095C85.7261 77.6733 86.9284 80.7484 86.9284 83.9683C86.9283 91.0083 81.2006 96.7361 74.1603 96.7361Z" fill="white"/>
<path d="M74.1602 74.9732C69.2005 74.9732 65.1653 79.0082 65.1653 83.968C65.1653 88.9277 69.2003 92.9629 74.1602 92.9629C79.1201 92.9629 83.1552 88.9279 83.1552 83.968C83.1552 79.0084 79.12 74.9732 74.1602 74.9732ZM74.1602 90.699C70.4488 90.699 67.4292 87.6796 67.4292 83.968C67.4292 80.2565 70.4488 77.2371 74.1602 77.2371C77.8717 77.2371 80.8913 80.2565 80.8913 83.968C80.8913 87.6796 77.8717 90.699 74.1602 90.699Z" fill="white"/>
<path d="M56.2915 57.4174V58.1335C56.2915 58.7587 56.7982 59.2655 57.4235 59.2655C58.0488 59.2655 58.5554 58.7587 58.5554 58.1335V57.4174C58.5554 56.7922 58.0488 56.2854 57.4235 56.2854C56.7983 56.2854 56.2915 56.7921 56.2915 57.4174Z" fill="white"/>
</g>
<defs>
<clipPath id="clip0">
<rect width="77" height="77" fill="white" transform="translate(19 22)"/>
</clipPath>
</defs>
</svg>
