<svg width="150" height="150" viewBox="0 0 150 150" fill="none" xmlns="http://www.w3.org/2000/svg">
<g clip-path="url(#clip0)">
<path d="M149.711 81.9289C148.364 68.3824 142.312 55.6114 132.669 45.9682C124.428 37.7277 114.342 32.4322 103.729 30.0776V22.6338C108.064 21.5553 111.286 17.6315 111.286 12.9677C111.286 7.47502 106.817 3.00659 101.325 3.00659H80.2305C74.7378 3.00659 70.2694 7.47502 70.2694 12.9677C70.2694 17.6312 73.4915 21.555 77.826 22.6338V30.0984C67.2453 32.463 57.1922 37.7512 48.9749 45.9685C47.1766 47.7668 45.5184 49.6532 44.0005 51.6138C43.927 51.6082 43.8534 51.6027 43.7784 51.6027H22.9008C21.283 51.6027 19.9711 52.9143 19.9711 54.5324C19.9711 56.1505 21.283 57.4621 22.9008 57.4621H40.014C37.8659 61.0584 36.1339 64.8351 34.8155 68.7229H2.92973C1.31193 68.7229 0 70.0345 0 71.6526C0 73.2707 1.31193 74.5823 2.92973 74.5823H33.1599C32.3155 78.2887 31.831 82.0608 31.7059 85.8433H18.7503C17.1325 85.8433 15.8206 87.155 15.8206 88.7731C15.8206 90.3912 17.1325 91.7028 18.7503 91.7028H31.7993C32.0466 95.495 32.6563 99.2674 33.6287 102.964H14.6487C13.0309 102.964 11.7189 104.275 11.7189 105.894C11.7189 107.512 13.0309 108.823 14.6487 108.823H35.4984C38.3725 116.426 42.864 123.552 48.9749 129.663C58.6272 139.315 71.4114 145.369 84.9719 146.709C86.9073 146.9 88.8442 146.994 90.7784 146.994C102.211 146.994 113.498 143.686 123.075 137.449C124.431 136.566 124.815 134.751 123.932 133.395C123.049 132.039 121.234 131.656 119.878 132.539C98.9134 146.19 70.8369 143.239 53.1181 125.52C32.3281 104.73 32.3281 70.9023 53.1181 50.112C73.9078 29.3223 107.735 29.3223 128.526 50.112C146.221 67.8076 149.189 95.8601 135.582 116.814C134.701 118.171 135.087 119.986 136.444 120.867C137.801 121.748 139.615 121.362 140.496 120.005C147.766 108.809 151.039 95.287 149.711 81.9289ZM76.1288 12.968C76.1288 10.7062 77.9687 8.86635 80.2305 8.86635H101.325C103.586 8.86635 105.426 10.7062 105.426 12.968C105.426 15.2297 103.586 17.0696 101.325 17.0696H100.799H80.7558H80.2305C77.9687 17.0696 76.1288 15.2294 76.1288 12.968ZM83.6855 29.0912V22.9291H97.8692V29.0806C93.1594 28.5205 88.3944 28.524 83.6855 29.0912Z" fill="#05B7FA"/>
<path d="M130.599 124.66C129.825 124.66 129.072 124.974 128.528 125.519C127.98 126.064 127.669 126.82 127.669 127.59C127.669 128.361 127.98 129.116 128.528 129.661C129.072 130.209 129.825 130.52 130.599 130.52C131.369 130.52 132.122 130.209 132.67 129.661C133.215 129.116 133.528 128.361 133.528 127.59C133.528 126.82 133.215 126.064 132.67 125.519C132.122 124.974 131.369 124.66 130.599 124.66Z" fill="#05B7FA"/>
<path d="M90.822 42.3667C65.7616 42.3667 45.3733 62.7547 45.3733 87.8154C45.3733 112.876 65.7616 133.264 90.822 133.264C115.882 133.264 136.271 112.876 136.271 87.8154C136.271 62.7547 115.882 42.3667 90.822 42.3667ZM90.822 127.405C68.9922 127.405 51.2328 109.645 51.2328 87.8154C51.2328 65.9859 68.9922 48.2262 90.822 48.2262C112.652 48.2262 130.411 65.9859 130.411 87.8154C130.411 109.645 112.652 127.405 90.822 127.405Z" fill="#05B7FA"/>
<path d="M109.354 65.1398L94.8433 79.6505C93.6298 79.0505 92.2648 78.7115 90.8219 78.7115C89.3788 78.7115 88.0141 79.0505 86.8006 79.6505L80.3063 73.1561C79.1619 72.0121 77.3074 72.0121 76.1627 73.1561C75.0187 74.3002 75.0187 76.1553 76.1627 77.2994L82.6571 83.7937C82.0568 85.0072 81.7181 86.3722 81.7181 87.8151C81.7181 92.8349 85.8018 96.9189 90.8219 96.9189C95.842 96.9189 99.9258 92.8349 99.9258 87.8151C99.9258 86.3722 99.5868 85.0072 98.9868 83.7937L113.072 69.7087L113.497 69.283C114.642 68.139 114.642 66.2838 113.497 65.1398C112.353 63.9957 110.499 63.9957 109.354 65.1398ZM90.8219 91.0597C89.033 91.0597 87.5776 89.6042 87.5776 87.8153C87.5776 86.0264 89.033 84.571 90.8219 84.571C92.6108 84.571 94.0663 86.0264 94.0663 87.8153C94.0663 89.6042 92.6108 91.0597 90.8219 91.0597Z" fill="#05B7FA"/>
<path d="M122.146 84.9214H119.432C117.814 84.9214 116.502 86.233 116.502 87.8511C116.502 89.4691 117.814 90.7808 119.432 90.7808H122.146C123.764 90.7808 125.076 89.4691 125.076 87.8511C125.076 86.233 123.764 84.9214 122.146 84.9214Z" fill="#05B7FA"/>
<path d="M62.2116 84.85H59.4976C57.8798 84.85 56.5679 86.1616 56.5679 87.7797C56.5679 89.3977 57.8798 90.7094 59.4976 90.7094H62.2116C63.8294 90.7094 65.1413 89.3977 65.1413 87.7797C65.1413 86.1616 63.8294 84.85 62.2116 84.85Z" fill="#05B7FA"/>
<path d="M90.8577 62.1347C92.4754 62.1347 93.7874 60.8231 93.7874 59.205V56.491C93.7874 54.8729 92.4754 53.5613 90.8577 53.5613C89.2399 53.5613 87.928 54.8729 87.928 56.491V59.205C87.928 60.8231 89.2399 62.1347 90.8577 62.1347Z" fill="#05B7FA"/>
<path d="M90.7861 113.496C89.1684 113.496 87.8564 114.807 87.8564 116.426V119.14C87.8564 120.758 89.1684 122.069 90.7861 122.069C92.4039 122.069 93.7158 120.758 93.7158 119.14V116.426C93.7158 114.807 92.4039 113.496 90.7861 113.496Z" fill="#05B7FA"/>
<path d="M2.92969 102.963C2.15918 102.963 1.40332 103.276 0.858398 103.821C0.313477 104.366 0 105.122 0 105.892C0 106.666 0.313184 107.419 0.858398 107.964C1.40361 108.509 2.15918 108.822 2.92969 108.822C3.7002 108.822 4.45605 108.509 5.00068 107.964C5.54561 107.419 5.85938 106.663 5.85938 105.892C5.85938 105.122 5.5459 104.366 5.00068 103.821C4.45605 103.276 3.7002 102.963 2.92969 102.963Z" fill="#05B7FA"/>
</g>
<defs>
<clipPath id="clip0">
<rect width="150" height="150" fill="white"/>
</clipPath>
</defs>
</svg>
