<svg width="140" height="140" viewBox="0 0 140 140" fill="none" xmlns="http://www.w3.org/2000/svg">
<g clip-path="url(#clip0)">
<path d="M128.759 2.92855C126.401 0.570361 123.04 -0.454236 119.767 0.187265L112.502 1.61191C105.637 2.9578 99.1018 5.95503 93.6017 10.2787C91.7883 11.7047 90.8922 14.0047 91.263 16.2814L91.6154 18.4462L87.718 16.9937C86.6084 16.58 85.3418 16.7782 84.4113 17.51L75.0037 24.9102C74.1136 25.6105 73.9597 26.8998 74.6597 27.7901C75.3603 28.6802 76.6498 28.8344 77.5396 28.1341L86.6456 20.9712L91.2859 22.7005C92.4402 23.1303 93.6972 22.9206 94.6493 22.1386C95.6012 21.3568 96.051 20.164 95.853 18.9483L95.3116 15.6221C95.1806 14.8185 95.4973 14.0063 96.1377 13.5029C101.129 9.57844 107.061 6.85822 113.292 5.63647L120.557 4.21182C122.515 3.82845 124.448 4.41718 125.859 5.82842C127.269 7.23912 127.858 9.16992 127.475 11.1259L126.055 18.356C124.827 24.6162 122.091 30.5694 118.143 35.571L97.1319 62.1809L88.9825 62.7839C87.5056 62.8933 86.3071 63.8892 85.9297 65.3212C85.5521 66.7532 86.1036 68.2104 87.3347 69.0337L90.2072 70.955L85.6339 76.7465C81.4469 76.9434 76.4464 77.2827 72.9507 77.5362C71.4842 77.6423 70.2871 78.6275 69.901 80.0459C69.5143 81.4656 70.0475 82.9231 71.2589 83.759L76.9812 87.7064L72.3696 93.5469C64.8346 90.6558 59.8046 85.2687 57.3258 77.4564L108.259 26.5232C109.06 25.7223 109.06 24.4237 108.259 23.6231C107.458 22.8222 106.159 22.8222 105.359 23.6231L56.1956 72.7859C55.6742 69.7874 55.4546 66.5044 55.5396 62.9395C55.5667 61.8071 54.6706 60.8673 53.5383 60.8402C52.4024 60.8072 51.4659 61.7093 51.4391 62.8416C51.322 67.7562 51.7675 72.2254 52.7524 76.2292L40.3487 88.6331C34.8003 80.0079 32.8287 70.5746 32.1826 63.8134L34.1082 62.2985L40.0698 65.576C41.1398 66.1642 42.4058 66.1442 43.4564 65.523C44.5073 64.9017 45.1345 63.8019 45.1345 62.581V53.6249L53.4369 47.0942C52.882 49.6329 52.4336 52.1551 52.1019 54.6352C51.9521 55.7577 52.7404 56.7897 53.8629 56.9398C53.955 56.9521 54.0466 56.9582 54.1372 56.9582C55.1489 56.9582 56.0297 56.2092 56.1675 55.1789C56.7004 51.1909 57.5443 47.0849 58.6747 42.9742L71.3423 33.0096C72.2326 32.3093 72.3866 31.02 71.6863 30.1297C70.986 29.2394 69.6964 29.0857 68.8066 29.7857L42.3375 50.6069C41.5084 51.2593 41.0329 52.2382 41.0329 53.2932V61.4254L34.8949 58.0511C34.1735 57.6549 33.2857 57.7276 32.639 58.2365L26.472 63.0882C23.5497 65.3895 21.7911 68.8401 21.647 72.5565L20.247 109.313C20.2415 109.456 20.2525 109.596 20.2754 109.733C14.2047 117.928 10.1271 127.406 8.34451 137.596C8.14927 138.712 8.8955 139.775 10.0112 139.97C10.1309 139.991 10.2496 140.001 10.3669 140.001C11.3445 140.001 12.2105 139.299 12.3847 138.303C14.0866 128.574 18.0195 119.537 23.8841 111.757L33.4355 113.457C33.5572 113.479 33.678 113.49 33.7973 113.49C34.7724 113.49 35.6373 112.791 35.8139 111.798C36.0124 110.683 35.2695 109.618 34.1544 109.419L26.8493 108.119C27.7301 107.117 28.6437 106.14 29.5936 105.19L39.8601 94.9235C44.9986 101.373 51.6324 106.293 59.6771 109.609C57.7097 111.95 54.6521 113.069 51.6269 112.529L41.944 110.806C40.8283 110.608 39.7638 111.351 39.5656 112.465C39.3671 113.581 40.11 114.646 41.2251 114.844L50.9075 116.567C51.6529 116.7 52.3994 116.765 53.1399 116.765C56.9725 116.765 60.6378 115.025 63.0657 111.95L80.6522 89.6766C81.2352 88.938 81.4895 87.9804 81.3495 87.0502C81.2095 86.1196 80.6851 85.2796 79.9104 84.745L75.1913 81.49C78.5257 81.2567 82.6451 80.9904 86.1315 80.831C87.123 80.7856 88.0445 80.313 88.659 79.5348L93.8842 72.9177C94.4732 72.1718 94.7262 71.2057 94.5779 70.267C94.4297 69.3282 93.8919 68.4868 93.1019 67.9583L91.2641 66.7291L97.734 66.2506C98.6864 66.1801 99.5724 65.7095 100.164 64.96L121.361 38.1146C125.712 32.6033 128.726 26.0444 130.079 19.1479L131.498 11.9178C132.14 8.646 131.116 5.28618 128.759 2.92855ZM26.6935 102.288C25.9527 103.029 25.2341 103.786 24.5327 104.556L25.7454 72.7129C25.8324 70.4679 26.7933 68.3676 28.4055 66.8353C29.2009 72.6777 31.0136 80.248 35.0529 87.6586C35.7901 89.011 36.5774 90.3143 37.413 91.5686L26.6935 102.288ZM42.7575 92.0247L54.1317 80.6505C57.0485 88.2224 62.294 93.7167 69.7238 96.8977L62.338 106.251C53.5178 102.845 47.2299 97.7331 42.7575 92.0247Z" fill="#05B7FA"/>
</g>
<defs>
<clipPath id="clip0">
<rect width="140" height="140" fill="white"/>
</clipPath>
</defs>
</svg>
