<svg width="140" height="140" viewBox="0 0 140 140" fill="none" xmlns="http://www.w3.org/2000/svg">
<path d="M135.898 92.1484H47.8516V4.10156C47.8516 1.83641 46.0152 0 43.75 0H4.10156C1.83641 0 0 1.83641 0 4.10156V135.898C0 138.164 1.83641 140 4.10156 140H135.898C138.164 140 140 138.164 140 135.898V96.25C140 93.9848 138.164 92.1484 135.898 92.1484ZM8.20312 8.20312H39.6484V19.9609H30.625C28.3598 19.9609 26.5234 21.7973 26.5234 24.0625C26.5234 26.3277 28.3598 28.1641 30.625 28.1641H39.6484V37.4609H35C32.7348 37.4609 30.8984 39.2973 30.8984 41.5625C30.8984 43.8277 32.7348 45.6641 35 45.6641H39.6484V54.9609H30.625C28.3598 54.9609 26.5234 56.7973 26.5234 59.0625C26.5234 61.3277 28.3598 63.1641 30.625 63.1641H39.6484V72.4609H35C32.7348 72.4609 30.8984 74.2973 30.8984 76.5625C30.8984 78.8277 32.7348 80.6641 35 80.6641H39.6484V92.1484H8.20312V8.20312ZM8.20312 100.352H39.6484V131.797H8.20312V100.352ZM131.797 131.797H47.8516V100.352H59.3359V109.375C59.3359 111.64 61.1723 113.477 63.4375 113.477C65.7027 113.477 67.5391 111.64 67.5391 109.375V100.352H76.8359V105C76.8359 107.265 78.6723 109.102 80.9375 109.102C83.2027 109.102 85.0391 107.265 85.0391 105V100.352H94.3359V109.375C94.3359 111.64 96.1723 113.477 98.4375 113.477C100.703 113.477 102.539 111.64 102.539 109.375V100.352H111.836V105C111.836 107.265 113.672 109.102 115.938 109.102C118.203 109.102 120.039 107.265 120.039 105V100.352H131.797V131.797Z" fill="#05B7FA"/>
<path d="M28.0848 115.136C27.5734 112.696 25.156 111.332 22.8703 112.014C20.5144 112.781 19.5357 115.1 20.1387 117.13C20.9161 119.507 23.2449 120.461 25.2547 119.861C27.42 119.155 28.4566 117.123 28.0848 115.136Z" fill="#05B7FA"/>
</svg>
