<svg width="135" height="140" viewBox="0 0 135 140" fill="none" xmlns="http://www.w3.org/2000/svg">
<path d="M65 0C37.8608 0 15.7812 22.0795 15.7812 49.2188C15.7812 58.3882 18.3212 67.3367 23.1282 75.1002L62.1984 138.061C62.9468 139.267 64.2653 140 65.6833 140C65.6943 140 65.7049 140 65.7159 140C67.1462 139.989 68.4675 139.233 69.2022 138.006L107.276 74.4352C111.818 66.8358 114.219 58.1161 114.219 49.2188C114.219 22.0795 92.1392 0 65 0ZM100.237 70.2237L65.6213 128.02L30.1004 70.7782C26.0991 64.3163 23.9297 56.8613 23.9297 49.2188C23.9297 26.6027 42.384 8.14844 65 8.14844C87.616 8.14844 106.043 26.6027 106.043 49.2188C106.043 56.6346 104.017 63.8991 100.237 70.2237Z" fill="#05B7FA"/>
<path d="M65 24.6094C51.4304 24.6094 40.3906 35.6491 40.3906 49.2188C40.3906 62.7017 51.2507 73.8281 65 73.8281C78.9188 73.8281 89.6094 62.5535 89.6094 49.2188C89.6094 35.6491 78.5696 24.6094 65 24.6094ZM65 65.6797C55.9063 65.6797 48.5391 58.2879 48.5391 49.2188C48.5391 40.1723 55.9536 32.7578 65 32.7578C74.0464 32.7578 81.4336 40.1723 81.4336 49.2188C81.4336 58.1555 74.2378 65.6797 65 65.6797Z" fill="#05B7FA"/>
</svg>
